<?xml version="1.0" encoding="UTF-8" standalone="no"?><!-- Generator: Gravit.io --><svg xmlns="http://www.w3.org/2000/svg" xmlns:xlink="http://www.w3.org/1999/xlink" style="isolation:isolate" viewBox="0 0 192 192" width="192pt" height="192pt"><g><linearGradient id="_lgradient_8" x1="0.9989863013698632" y1="0.4998034113588412" x2="0.0006575342465753309" y2="0.4998034113588411" gradientTransform="matrix(124.695,0,0,100.392,62.478,29.915)" gradientUnits="userSpaceOnUse"><stop offset="0%" stop-opacity="1" style="stop-color:rgb(177,221,202)"/><stop offset="100%" stop-opacity="1" style="stop-color:rgb(13,179,196)"/></linearGradient><path d=" M 98.007 75.352 C 95.616 75.01 93.566 74.668 91.175 74.668 C 90.492 74.668 89.467 74.668 88.783 74.668 C 87.417 74.668 87.075 74.668 86.392 75.352 C 85.008 78.351 89.699 81.35 93.523 82.771 C 95.362 83.454 100.398 84.904 101.548 85.107 C 106.427 85.967 114.179 85.454 116.114 86.284 C 113.381 87.65 100.399 90.383 96.299 91.066 C 94.933 91.408 78.193 93.458 75.118 93.8 C 73.068 93.8 69.652 93.8 68.627 94.824 C 67.45 96.237 68.058 97.812 69.332 98.655 C 69.907 99.035 71.889 99.656 72.651 99.782 C 76.571 100.428 88.148 99.949 90.15 99.949 C 96.299 99.949 101.765 98.241 107.915 98.582 C 106.89 99.607 102.449 100.632 102.107 100.974 Q 75.46 106.44 73.068 106.781 C 69.311 107.465 62.82 107.465 62.478 111.564 C 63.844 114.981 75.46 112.931 78.535 112.931 L 91.516 111.564 C 92.883 111.223 93.225 111.223 95.274 110.881 C 97.666 110.539 100.74 109.856 103.132 109.173 L 106.548 108.831 L 104.157 110.539 C 99.374 112.589 80.584 118.055 79.218 118.397 C 76.826 119.08 74.777 119.763 75.801 122.496 C 77.231 123.211 82.316 123.095 85.726 122.612 C 87.206 122.402 91.296 121.486 92.904 121.189 C 101.273 119.641 114.956 115.907 117.822 113.614 L 119.53 113.614 C 117.139 114.981 116.114 116.347 112.356 118.397 L 100.057 124.546 C 98.349 125.229 96.641 125.571 94.933 126.254 C 93.225 126.938 90.833 127.279 90.492 129.329 C 93.908 132.062 103.132 128.304 107.573 127.279 C 114.064 126.596 135.245 116.689 139.345 113.272 C 142.078 112.248 145.836 109.514 148.569 107.806 C 150.277 106.781 155.743 102.682 156.426 101.657 C 159.501 100.29 167.7 91.408 170.433 88.675 L 176.241 81.501 C 182.39 72.618 186.831 64.419 187.173 52.462 C 187.173 38.797 179.657 30.598 178.29 29.915 C 179.315 35.039 181.365 37.772 178.29 45.971 C 173.849 55.879 158.476 70.227 147.885 73.302 C 146.519 73.985 144.469 74.668 142.419 74.668 C 132.17 77.743 132.512 72.618 120.555 72.277 C 119.188 71.935 117.822 72.277 116.455 72.277 C 115.772 72.277 114.747 72.277 114.406 72.618 Q 109.964 73.643 108.598 73.985 C 107.915 73.985 107.231 74.327 106.548 74.327 C 105.182 74.668 100.399 75.352 98.007 75.352 Z " fill-rule="evenodd" fill="url(#_lgradient_8)"/><linearGradient id="_lgradient_9" x1="0.981745477475179" y1="0.5689007092198586" x2="0.018281604843159993" y2="0.48990197524804674" gradientTransform="matrix(166.19,0,0,96.34,25.81,76.376)" gradientUnits="userSpaceOnUse"><stop offset="0%" stop-opacity="1" style="stop-color:rgb(101,78,157)"/><stop offset="100%" stop-opacity="1" style="stop-color:rgb(61,59,116)"/></linearGradient><path d=" M 66.053 159.526 Q 66.943 160.165 69.311 161.784 C 73.558 165.728 85.888 171.288 92.902 172.245 C 93.786 172.365 96.299 172.716 96.983 172.716 C 97.324 172.716 102.449 172.716 104.157 172.716 C 115.431 172.033 121.921 166.567 125.679 165.542 C 130.804 161.442 133.195 160.759 139.345 154.61 C 143.103 150.852 148.569 145.727 151.643 141.969 C 153.351 139.92 155.743 137.186 157.451 135.478 C 159.501 133.087 160.867 130.696 162.917 128.304 C 164.625 126.254 167.017 123.18 168.041 121.13 C 170.775 117.372 171.799 115.664 169.75 112.931 C 165.65 112.589 163.942 116.347 161.892 118.738 C 159.159 121.472 143.103 136.162 138.661 134.453 L 137.978 130.012 C 134.22 128.646 131.145 131.72 127.046 134.453 C 120.555 139.236 116.797 143.677 108.94 147.777 C 104.498 150.168 101.765 150.852 95.274 150.51 C 89.808 149.827 83.317 145.386 79.218 142.311 C 76.826 140.603 74.777 138.895 72.385 136.845 C 69.994 134.795 67.261 132.404 65.211 131.037 L 53.596 119.763 C 49.838 115.664 46.08 111.223 42.663 107.123 C 35.148 97.899 32.073 92.091 28.657 81.159 C 28.315 79.793 27.973 77.06 27.632 76.376 C 26.265 76.718 26.948 77.06 26.265 80.818 C 25.24 86.625 26.265 90.725 26.265 95.849 C 26.607 100.974 28.998 107.806 30.706 112.589 C 32.073 117.03 35.489 122.838 37.539 126.596 C 40.272 131.379 43.005 135.137 46.08 139.236 L 55.987 150.852 C 57.611 151.934 62.664 157.09 66.053 159.526 Z  M 183.415 85.942 C 174.191 88.675 178.974 100.29 187.173 97.899 C 195.713 95.166 191.956 83.209 183.415 85.942 Z  M 173.508 102.682 C 168.383 105.073 172.141 111.906 176.924 109.173 C 181.023 107.123 178.632 100.632 173.508 102.682 Z  M 154.376 110.198 L 154.376 112.931 C 159.501 116.347 160.867 110.198 157.451 109.173 C 156.084 108.831 155.06 109.856 154.376 110.198 Z  M 143.103 117.372 C 135.928 120.105 140.369 128.987 146.519 126.938 C 153.693 124.546 149.935 114.981 143.103 117.372 Z  M 167.358 128.646 C 162.575 131.037 166.675 137.528 171.116 135.137 C 175.557 132.745 172.141 125.913 167.358 128.646 Z  M 177.607 117.372 C 171.799 120.447 176.924 128.646 182.732 125.571 C 188.198 122.496 183.756 114.297 177.607 117.372 Z " fill-rule="evenodd" fill="url(#_lgradient_9)"/><linearGradient id="_lgradient_10" x1="0.5499645560945425" y1="0.011132930262472085" x2="0.4597312892597765" y2="0.9894342426151432" gradientTransform="matrix(125.679,0,0,141.8,0,33.267)" gradientUnits="userSpaceOnUse"><stop offset="0%" stop-opacity="1" style="stop-color:rgb(138,56,125)"/><stop offset="100%" stop-opacity="1" style="stop-color:rgb(235,84,137)"/></linearGradient><path d=" M 10.209 104.048 C 11.917 109.856 25.582 126.254 29.34 130.696 C 32.756 134.453 37.197 138.895 40.955 142.311 L 49.838 150.51 C 54.69 154.498 65.211 162.809 67.602 164.517 C 71.702 167.25 79.218 171.349 84.684 173.058 C 93.908 175.791 98.691 175.449 107.915 173.741 C 113.039 172.716 121.921 168.275 125.679 165.542 C 121.921 166.567 115.431 172.033 104.157 172.716 C 102.449 172.716 97.666 172.716 96.983 172.716 C 96.299 172.716 93.792 172.366 92.911 172.246 C 85.899 171.293 73.56 165.73 69.311 161.784 Q 66.958 160.174 66.08 159.545 C 62.691 157.117 57.615 151.937 55.987 150.852 L 46.08 139.236 C 43.005 135.137 40.272 131.379 37.539 126.596 C 35.489 122.838 32.073 117.03 30.706 112.589 C 28.998 107.806 26.607 100.974 26.265 95.849 C 26.265 90.725 25.24 86.625 26.265 80.818 C 26.948 77.06 26.265 76.718 27.632 76.376 C 27.29 72.277 27.632 69.544 28.315 65.786 C 28.998 62.028 30.023 59.978 31.39 56.904 C 32.073 56.22 33.098 54.512 33.781 53.829 C 39.247 47.68 47.446 44.946 56.329 46.996 C 59.745 47.68 63.161 49.729 65.211 50.071 C 65.553 49.729 58.72 45.288 57.695 44.605 C 55.304 42.897 51.204 41.189 48.813 39.822 C 44.372 38.114 37.197 34.014 31.731 33.673 C 24.215 32.989 17.041 32.648 11.233 37.089 L 8.159 40.164 C 7.134 40.847 7.817 40.505 6.792 40.847 C 5.799 42.337 3.724 46.172 2.663 49.337 C 2.265 50.527 0.934 54.609 0.617 56.383 C -0.637 63.393 0.236 76.456 1.326 80.818 C 2.351 85.6 3.376 89.017 5.084 93.116 C 5.426 94.824 8.842 102.682 10.209 104.048 Z " fill-rule="evenodd" fill="url(#_lgradient_10)"/><linearGradient id="_lgradient_11" x1="-0.00033546890435021126" y1="0.4998461538461543" x2="1.0003682727714671" y2="0.4998461538461543" gradientTransform="matrix(173.122,0,0,57.735,6.792,16.933)" gradientUnits="userSpaceOnUse"><stop offset="0%" stop-opacity="1" style="stop-color:rgb(215,77,119)"/><stop offset="100%" stop-opacity="1" style="stop-color:rgb(241,186,129)"/></linearGradient><path d=" M 6.792 40.847 C 7.817 40.505 7.134 40.847 8.159 40.164 L 11.233 37.089 C 17.041 32.648 24.215 32.989 31.731 33.673 C 37.197 34.014 44.372 38.114 48.813 39.822 C 51.204 41.189 55.304 42.897 57.695 44.605 C 58.72 45.288 65.553 49.729 65.211 50.071 Q 65.894 50.754 79.559 60.32 C 81.951 62.37 89.125 65.786 91.858 66.469 C 94.173 67.086 96.417 67.425 98.624 67.39 C 101.303 67.348 104.075 66.905 106.698 65.594 Q 111.311 63.722 113.338 62.456 C 117.734 59.71 123.639 54.68 127.188 51.232 C 128.67 49.793 132.287 46.59 134.03 45.425 C 136.957 43.47 141.207 41.189 147.202 41.189 C 154.035 41.189 159.501 44.605 161.551 49.729 C 163.942 55.879 159.842 62.37 156.084 65.444 C 149.593 71.252 143.444 73.985 142.419 74.668 C 144.469 74.668 146.519 73.985 147.885 73.302 C 158.476 70.227 173.849 55.879 178.29 45.971 C 181.365 37.772 179.315 35.039 178.29 29.915 C 176.241 26.498 164.967 20.008 159.501 18.641 C 153.01 17.275 144.811 16.591 137.978 18.641 Q 130.566 20.753 129.72 21.013 C 126.235 22.087 120.771 25.399 118.847 26.498 C 116.455 27.865 115.431 28.548 113.039 30.256 C 111.673 31.623 105.182 35.722 103.473 36.406 C 93.476 40.016 85.285 30.082 78.165 25.504 C 76.526 24.45 70.729 21.753 68.328 20.925 C 62.585 18.944 53.832 17.174 49.496 16.933 C 44.713 16.933 40.272 17.275 35.831 18.299 C 33.781 18.983 27.632 21.032 25.924 22.057 L 19.433 26.157 C 15.333 28.89 8.159 36.406 6.792 40.847 Z " fill-rule="evenodd" fill="url(#_lgradient_11)"/></g></svg>