<?xml version="1.0" encoding="UTF-8" standalone="no"?><!-- Generator: Gravit.io --><svg xmlns="http://www.w3.org/2000/svg" xmlns:xlink="http://www.w3.org/1999/xlink" style="isolation:isolate" viewBox="0 0 48 48" width="48pt" height="48pt"><g><linearGradient id="_lgradient_0" x1="0.9989863013698632" y1="0.4998034113588412" x2="0.0006575342465753309" y2="0.4998034113588411" gradientTransform="matrix(31.174,0,0,25.098,95.619,7.479)" gradientUnits="userSpaceOnUse"><stop offset="0%" stop-opacity="1" style="stop-color:rgb(177,221,202)"/><stop offset="100%" stop-opacity="1" style="stop-color:rgb(13,179,196)"/></linearGradient><path d=" M 104.502 18.838 C 103.904 18.752 103.392 18.667 102.794 18.667 C 102.623 18.667 102.367 18.667 102.196 18.667 C 101.854 18.667 101.769 18.667 101.598 18.838 C 101.252 19.588 102.425 20.337 103.381 20.693 C 103.841 20.864 105.1 21.226 105.387 21.277 C 106.607 21.492 108.545 21.364 109.028 21.571 C 108.345 21.913 105.1 22.596 104.075 22.767 C 103.733 22.852 99.548 23.364 98.78 23.45 C 98.267 23.45 97.413 23.45 97.157 23.706 C 96.862 24.059 97.014 24.453 97.333 24.664 C 97.477 24.759 97.972 24.914 98.163 24.946 C 99.143 25.107 102.037 24.987 102.537 24.987 C 104.075 24.987 105.441 24.56 106.979 24.646 C 106.722 24.902 105.612 25.158 105.527 25.243 Q 98.865 26.61 98.267 26.695 C 97.328 26.866 95.705 26.866 95.619 27.891 C 95.961 28.745 98.865 28.233 99.634 28.233 L 102.879 27.891 C 103.221 27.806 103.306 27.806 103.819 27.72 C 104.416 27.635 105.185 27.464 105.783 27.293 L 106.637 27.208 L 106.039 27.635 C 104.843 28.147 100.146 29.514 99.804 29.599 C 99.207 29.77 98.694 29.941 98.95 30.624 C 99.308 30.803 100.579 30.774 101.431 30.653 C 101.801 30.601 102.824 30.372 103.226 30.297 C 105.318 29.91 108.739 28.977 109.455 28.404 L 109.883 28.404 C 109.285 28.745 109.028 29.087 108.089 29.599 L 105.014 31.137 C 104.587 31.307 104.16 31.393 103.733 31.564 C 103.306 31.734 102.708 31.82 102.623 32.332 C 103.477 33.016 105.783 32.076 106.893 31.82 C 108.516 31.649 113.811 29.172 114.836 28.318 C 115.519 28.062 116.459 27.379 117.142 26.952 C 117.569 26.695 118.936 25.67 119.107 25.414 C 119.875 25.073 121.925 22.852 122.608 22.169 L 124.06 20.375 C 125.597 18.155 126.708 16.105 126.793 13.116 C 126.793 9.699 124.914 7.65 124.573 7.479 C 124.829 8.76 125.341 9.443 124.573 11.493 C 123.462 13.97 119.619 17.557 116.971 18.325 C 116.63 18.496 116.117 18.667 115.605 18.667 C 113.043 19.436 113.128 18.155 110.139 18.069 C 109.797 17.984 109.455 18.069 109.114 18.069 C 108.943 18.069 108.687 18.069 108.601 18.155 Q 107.491 18.411 107.149 18.496 C 106.979 18.496 106.808 18.582 106.637 18.582 C 106.295 18.667 105.1 18.838 104.502 18.838 Z " fill-rule="evenodd" fill="url(#_lgradient_0)"/><linearGradient id="_lgradient_1" x1="0.981745477475179" y1="0.5689007092198586" x2="0.018281604843159993" y2="0.48990197524804674" gradientTransform="matrix(41.548,0,0,24.085,86.452,19.094)" gradientUnits="userSpaceOnUse"><stop offset="0%" stop-opacity="1" style="stop-color:rgb(101,78,157)"/><stop offset="100%" stop-opacity="1" style="stop-color:rgb(61,59,116)"/></linearGradient><path d=" M 96.513 39.881 Q 96.736 40.041 97.328 40.446 C 98.389 41.432 101.472 42.822 103.226 43.061 C 103.447 43.091 104.075 43.179 104.246 43.179 C 104.331 43.179 105.612 43.179 106.039 43.179 C 108.858 43.008 110.48 41.642 111.42 41.385 C 112.701 40.361 113.299 40.19 114.836 38.652 C 115.776 37.713 117.142 36.432 117.911 35.492 C 118.338 34.98 118.936 34.297 119.363 33.87 C 119.875 33.272 120.217 32.674 120.729 32.076 C 121.156 31.564 121.754 30.795 122.01 30.282 C 122.694 29.343 122.95 28.916 122.437 28.233 C 121.413 28.147 120.985 29.087 120.473 29.685 C 119.79 30.368 115.776 34.04 114.665 33.613 L 114.495 32.503 C 113.555 32.161 112.786 32.93 111.761 33.613 C 110.139 34.809 109.199 35.919 107.235 36.944 C 106.125 37.542 105.441 37.713 103.819 37.628 C 102.452 37.457 100.829 36.346 99.804 35.578 C 99.207 35.151 98.694 34.724 98.096 34.211 C 97.498 33.699 96.815 33.101 96.303 32.759 L 93.399 29.941 C 92.459 28.916 91.52 27.806 90.666 26.781 C 88.787 24.475 88.018 23.023 87.164 20.29 C 87.079 19.948 86.993 19.265 86.908 19.094 C 86.566 19.18 86.737 19.265 86.566 20.204 C 86.31 21.656 86.566 22.681 86.566 23.962 C 86.652 25.243 87.25 26.952 87.677 28.147 C 88.018 29.258 88.872 30.71 89.385 31.649 C 90.068 32.845 90.751 33.784 91.52 34.809 L 93.997 37.713 C 94.403 37.984 95.666 39.272 96.513 39.881 Z  M 125.854 21.486 C 123.548 22.169 124.743 25.073 126.793 24.475 C 128.928 23.792 127.989 20.802 125.854 21.486 Z  M 123.377 25.67 C 122.096 26.268 123.035 27.976 124.231 27.293 C 125.256 26.781 124.658 25.158 123.377 25.67 Z  M 118.594 27.549 L 118.594 28.233 C 119.875 29.087 120.217 27.549 119.363 27.293 C 119.021 27.208 118.765 27.464 118.594 27.549 Z  M 115.776 29.343 C 113.982 30.026 115.092 32.247 116.63 31.734 C 118.423 31.137 117.484 28.745 115.776 29.343 Z  M 121.84 32.161 C 120.644 32.759 121.669 34.382 122.779 33.784 C 123.889 33.186 123.035 31.478 121.84 32.161 Z  M 124.402 29.343 C 122.95 30.112 124.231 32.161 125.683 31.393 C 127.049 30.624 125.939 28.574 124.402 29.343 Z " fill-rule="evenodd" fill="url(#_lgradient_1)"/><linearGradient id="_lgradient_2" x1="0.5499645560945425" y1="0.011132930262472085" x2="0.4597312892597765" y2="0.9894342426151432" gradientTransform="matrix(31.42,0,0,35.45,80,8.317)" gradientUnits="userSpaceOnUse"><stop offset="0%" stop-opacity="1" style="stop-color:rgb(138,56,125)"/><stop offset="100%" stop-opacity="1" style="stop-color:rgb(235,84,137)"/></linearGradient><path d=" M 82.552 26.012 C 82.979 27.464 86.395 31.564 87.335 32.674 C 88.189 33.613 89.299 34.724 90.239 35.578 L 92.459 37.628 C 93.672 38.625 96.303 40.702 96.901 41.129 C 97.925 41.812 99.804 42.837 101.171 43.264 C 103.477 43.948 104.673 43.862 106.979 43.435 C 108.26 43.179 110.48 42.069 111.42 41.385 C 110.48 41.642 108.858 43.008 106.039 43.179 C 105.612 43.179 104.416 43.179 104.246 43.179 C 104.075 43.179 103.448 43.091 103.228 43.061 C 101.475 42.823 98.39 41.432 97.328 40.446 Q 96.74 40.043 96.52 39.886 C 95.673 39.279 94.404 37.984 93.997 37.713 L 91.52 34.809 C 90.751 33.784 90.068 32.845 89.385 31.649 C 88.872 30.71 88.018 29.258 87.677 28.147 C 87.25 26.952 86.652 25.243 86.566 23.962 C 86.566 22.681 86.31 21.656 86.566 20.204 C 86.737 19.265 86.566 19.18 86.908 19.094 C 86.823 18.069 86.908 17.386 87.079 16.446 C 87.25 15.507 87.506 14.995 87.847 14.226 C 88.018 14.055 88.274 13.628 88.445 13.457 C 89.812 11.92 91.862 11.237 94.082 11.749 C 94.936 11.92 95.79 12.432 96.303 12.518 C 96.388 12.432 94.68 11.322 94.424 11.151 C 93.826 10.724 92.801 10.297 92.203 9.956 C 91.093 9.528 89.299 8.504 87.933 8.418 C 86.054 8.247 84.26 8.162 82.808 9.272 L 82.04 10.041 C 81.783 10.212 81.954 10.126 81.698 10.212 C 81.45 10.584 80.931 11.543 80.666 12.334 C 80.566 12.632 80.234 13.652 80.154 14.096 C 79.841 15.848 80.059 19.114 80.332 20.204 C 80.588 21.4 80.844 22.254 81.271 23.279 C 81.356 23.706 82.211 25.67 82.552 26.012 Z " fill-rule="evenodd" fill="url(#_lgradient_2)"/><linearGradient id="_lgradient_3" x1="-0.00033546890435021126" y1="0.4998461538461543" x2="1.0003682727714671" y2="0.4998461538461543" gradientTransform="matrix(43.28,0,0,14.434,81.698,4.233)" gradientUnits="userSpaceOnUse"><stop offset="0%" stop-opacity="1" style="stop-color:rgb(215,77,119)"/><stop offset="100%" stop-opacity="1" style="stop-color:rgb(241,186,129)"/></linearGradient><path d=" M 81.698 10.212 C 81.954 10.126 81.783 10.212 82.04 10.041 L 82.808 9.272 C 84.26 8.162 86.054 8.247 87.933 8.418 C 89.299 8.504 91.093 9.528 92.203 9.956 C 92.801 10.297 93.826 10.724 94.424 11.151 C 94.68 11.322 96.388 12.432 96.303 12.518 Q 96.474 12.689 99.89 15.08 C 100.488 15.592 102.281 16.446 102.965 16.617 C 103.543 16.772 104.104 16.856 104.656 16.848 C 105.326 16.837 106.019 16.726 106.675 16.399 Q 107.828 15.931 108.335 15.614 C 109.434 14.927 110.91 13.67 111.797 12.808 C 112.167 12.448 113.072 11.647 113.507 11.356 C 114.239 10.867 115.302 10.297 116.801 10.297 C 118.509 10.297 119.875 11.151 120.388 12.432 C 120.985 13.97 119.961 15.592 119.021 16.361 C 117.398 17.813 115.861 18.496 115.605 18.667 C 116.117 18.667 116.63 18.496 116.971 18.325 C 119.619 17.557 123.462 13.97 124.573 11.493 C 125.341 9.443 124.829 8.76 124.573 7.479 C 124.06 6.625 121.242 5.002 119.875 4.66 C 118.252 4.319 116.203 4.148 114.495 4.66 Q 112.641 5.188 112.43 5.253 C 111.559 5.522 110.193 6.35 109.712 6.625 C 109.114 6.966 108.858 7.137 108.26 7.564 C 107.918 7.906 106.295 8.931 105.868 9.101 C 103.369 10.004 101.321 7.52 99.541 6.376 C 99.132 6.112 97.682 5.438 97.082 5.231 C 95.646 4.736 93.458 4.293 92.374 4.233 C 91.178 4.233 90.068 4.319 88.958 4.575 C 88.445 4.746 86.908 5.258 86.481 5.514 L 84.858 6.539 C 83.833 7.222 82.04 9.101 81.698 10.212 Z " fill-rule="evenodd" fill="url(#_lgradient_3)"/></g><linearGradient id="_lgradient_4" x1="0.5" y1="0" x2="0.509765625" y2="1.0169657610455334" gradientTransform="matrix(48,0,0,39.534,0,4.233)" gradientUnits="userSpaceOnUse"><stop offset="0%" stop-opacity="1" style="stop-color:rgb(199,65,123)"/><stop offset="100%" stop-opacity="1" style="stop-color:rgb(245,72,127)"/></linearGradient><path d=" M 13.997 37.713 C 14.403 37.984 15.671 39.277 16.518 39.885 Q 16.516 39.883 16.513 39.881 C 15.666 39.272 14.403 37.984 13.997 37.713 L 13.997 37.713 Z  M 14.424 11.151 C 13.826 10.724 12.801 10.297 12.203 9.956 L 12.203 9.956 C 11.093 9.528 9.299 8.504 7.933 8.418 L 7.933 8.418 C 6.054 8.247 4.26 8.162 2.808 9.272 L 2.808 9.272 L 2.04 10.041 L 2.04 10.041 L 2.808 9.272 L 2.808 9.272 C 4.26 8.162 6.054 8.247 7.933 8.418 L 7.933 8.418 C 9.299 8.504 11.093 9.528 12.203 9.956 L 12.203 9.956 C 12.801 10.297 13.826 10.724 14.424 11.151 L 14.424 11.151 L 14.424 11.151 L 14.424 11.151 Z  M 45.854 21.486 C 43.548 22.169 44.743 25.073 46.793 24.475 C 48.928 23.792 47.989 20.802 45.854 21.486 L 45.854 21.486 L 45.854 21.486 Z  M 43.377 25.67 C 42.096 26.268 43.035 27.976 44.231 27.293 C 45.256 26.781 44.658 25.158 43.377 25.67 L 43.377 25.67 L 43.377 25.67 Z  M 38.594 27.549 L 38.594 28.233 C 39.875 29.087 40.217 27.549 39.363 27.293 C 39.021 27.208 38.765 27.464 38.594 27.549 L 38.594 27.549 L 38.594 27.549 Z  M 35.776 29.343 C 33.982 30.026 35.092 32.247 36.63 31.734 C 38.423 31.137 37.484 28.745 35.776 29.343 L 35.776 29.343 L 35.776 29.343 Z  M 41.84 32.161 C 40.644 32.759 41.669 34.382 42.779 33.784 C 43.889 33.186 43.035 31.478 41.84 32.161 L 41.84 32.161 L 41.84 32.161 Z  M 44.402 29.343 C 42.95 30.112 44.231 32.161 45.683 31.393 C 47.049 30.624 45.939 28.574 44.402 29.343 L 44.402 29.343 L 44.402 29.343 Z  M 13.231 36.815 L 11.52 34.809 C 10.751 33.784 10.068 32.845 9.385 31.649 C 8.872 30.71 8.018 29.258 7.677 28.147 C 7.25 26.952 6.652 25.243 6.566 23.962 C 6.566 22.681 6.31 21.656 6.566 20.204 C 6.737 19.265 6.566 19.18 6.908 19.094 C 6.823 18.069 6.908 17.386 7.079 16.446 C 7.25 15.507 7.506 14.995 7.847 14.226 C 8.018 14.055 8.274 13.628 8.445 13.457 C 9.812 11.92 11.862 11.237 14.082 11.749 C 14.936 11.92 15.79 12.432 16.303 12.518 L 16.303 12.518 Q 16.474 12.689 19.89 15.08 C 20.488 15.592 22.281 16.446 22.965 16.617 C 23.543 16.772 24.104 16.856 24.656 16.848 C 25.326 16.837 26.019 16.726 26.675 16.399 Q 27.828 15.931 28.335 15.614 C 29.434 14.927 30.91 13.67 31.797 12.808 C 32.167 12.448 33.072 11.647 33.507 11.356 C 34.239 10.867 35.302 10.297 36.801 10.297 C 38.509 10.297 39.875 11.151 40.388 12.432 C 40.985 13.97 39.961 15.592 39.021 16.361 C 37.398 17.813 35.861 18.496 35.605 18.667 L 35.605 18.667 C 36.117 18.667 36.63 18.496 36.971 18.325 C 39.619 17.557 43.462 13.97 44.573 11.493 C 45.341 9.443 44.829 8.76 44.573 7.479 C 44.06 6.625 41.242 5.002 39.875 4.66 C 38.252 4.319 36.203 4.148 34.495 4.66 Q 32.641 5.188 32.43 5.253 C 31.559 5.522 30.193 6.35 29.712 6.625 C 29.114 6.966 28.858 7.137 28.26 7.564 C 27.918 7.906 26.295 8.931 25.868 9.101 C 23.369 10.004 21.321 7.52 19.541 6.376 C 19.132 6.112 17.682 5.438 17.082 5.231 C 15.646 4.736 13.458 4.293 12.374 4.233 C 11.178 4.233 10.068 4.319 8.958 4.575 C 8.445 4.746 6.908 5.258 6.481 5.514 L 4.858 6.539 C 3.833 7.222 2.04 9.101 1.698 10.212 L 1.698 10.212 C 1.45 10.584 0.931 11.543 0.666 12.334 C 0.566 12.632 0.234 13.652 0.154 14.096 C -0.159 15.848 0.059 19.114 0.332 20.204 C 0.588 21.4 0.844 22.254 1.271 23.279 C 1.356 23.706 2.211 25.67 2.552 26.012 C 2.979 27.464 6.395 31.564 7.335 32.674 C 8.189 33.613 9.299 34.724 10.239 35.578 L 12.459 37.628 C 13.672 38.625 16.303 40.702 16.901 41.129 C 17.925 41.812 19.804 42.837 21.171 43.264 C 23.477 43.948 24.673 43.862 26.979 43.435 C 28.26 43.179 30.48 42.069 31.42 41.385 C 30.48 41.642 28.858 43.008 26.039 43.179 C 25.612 43.179 24.416 43.179 24.246 43.179 C 24.075 43.179 23.448 43.091 23.228 43.061 C 21.475 42.823 18.39 41.432 17.328 40.446 L 17.328 40.446 L 17.328 40.446 C 18.389 41.432 21.472 42.822 23.226 43.061 C 23.447 43.091 24.075 43.179 24.246 43.179 C 24.331 43.179 25.612 43.179 26.039 43.179 C 28.858 43.008 30.48 41.642 31.42 41.385 C 32.701 40.361 33.299 40.19 34.836 38.652 C 35.776 37.713 37.142 36.432 37.911 35.492 C 38.338 34.98 38.936 34.297 39.363 33.87 C 39.875 33.272 40.217 32.674 40.729 32.076 C 41.156 31.564 41.754 30.795 42.01 30.282 C 42.694 29.343 42.95 28.916 42.437 28.233 C 41.413 28.147 40.985 29.087 40.473 29.685 C 39.79 30.368 35.776 34.04 34.665 33.613 L 34.495 32.503 C 33.555 32.161 32.786 32.93 31.761 33.613 C 30.139 34.809 29.199 35.919 27.235 36.944 C 26.125 37.542 25.441 37.713 23.819 37.628 C 22.452 37.457 20.829 36.346 19.804 35.578 C 19.207 35.151 18.694 34.724 18.096 34.211 C 17.498 33.699 16.815 33.101 16.303 32.759 L 13.399 29.941 C 12.459 28.916 11.52 27.806 10.666 26.781 C 8.787 24.475 8.018 23.023 7.164 20.29 C 7.079 19.948 6.993 19.265 6.908 19.094 L 6.908 19.094 C 6.566 19.18 6.737 19.265 6.566 20.204 C 6.31 21.656 6.566 22.681 6.566 23.962 C 6.652 25.243 7.25 26.952 7.677 28.147 C 8.018 29.258 8.872 30.71 9.385 31.649 C 10.068 32.845 10.751 33.784 11.52 34.809 L 13.231 36.815 L 13.231 36.815 Z  M 24.502 18.838 C 23.904 18.752 23.392 18.667 22.794 18.667 C 22.623 18.667 22.367 18.667 22.196 18.667 C 21.854 18.667 21.769 18.667 21.598 18.838 C 21.252 19.588 22.425 20.337 23.381 20.693 C 23.841 20.864 25.1 21.226 25.387 21.277 C 26.607 21.492 28.545 21.364 29.028 21.571 C 28.345 21.913 25.1 22.596 24.075 22.767 C 23.733 22.852 19.548 23.364 18.78 23.45 C 18.267 23.45 17.413 23.45 17.157 23.706 C 16.862 24.059 17.014 24.453 17.333 24.664 C 17.477 24.759 17.972 24.914 18.163 24.946 C 19.143 25.107 22.037 24.987 22.537 24.987 C 24.075 24.987 25.441 24.56 26.979 24.646 C 26.722 24.902 25.612 25.158 25.527 25.243 Q 18.865 26.61 18.267 26.695 C 17.328 26.866 15.705 26.866 15.619 27.891 C 15.961 28.745 18.865 28.233 19.634 28.233 L 22.879 27.891 C 23.221 27.806 23.306 27.806 23.819 27.72 C 24.416 27.635 25.185 27.464 25.783 27.293 L 26.637 27.208 L 26.039 27.635 C 24.843 28.147 20.146 29.514 19.804 29.599 C 19.207 29.77 18.694 29.941 18.95 30.624 C 19.308 30.803 20.579 30.774 21.431 30.653 C 21.801 30.601 22.824 30.372 23.226 30.297 C 25.318 29.91 28.739 28.977 29.455 28.404 L 29.883 28.404 C 29.285 28.745 29.028 29.087 28.089 29.599 L 25.014 31.137 C 24.587 31.307 24.16 31.393 23.733 31.564 C 23.306 31.734 22.708 31.82 22.623 32.332 C 23.477 33.016 25.783 32.076 26.893 31.82 C 28.516 31.649 33.811 29.172 34.836 28.318 C 35.519 28.062 36.459 27.379 37.142 26.952 C 37.569 26.695 38.936 25.67 39.107 25.414 C 39.875 25.073 41.925 22.852 42.608 22.169 L 44.06 20.375 C 45.597 18.155 46.708 16.105 46.793 13.116 C 46.793 9.699 44.914 7.65 44.573 7.479 C 44.829 8.76 45.341 9.443 44.573 11.493 C 43.462 13.97 39.619 17.557 36.971 18.325 C 36.63 18.496 36.117 18.667 35.605 18.667 L 35.605 18.667 C 33.043 19.436 33.128 18.155 30.139 18.069 C 29.797 17.984 29.455 18.069 29.114 18.069 C 28.943 18.069 28.687 18.069 28.601 18.155 Q 27.491 18.411 27.149 18.496 C 26.979 18.496 26.808 18.582 26.637 18.582 C 26.295 18.667 25.1 18.838 24.502 18.838 Z " fill-rule="evenodd" fill="url(#_lgradient_4)"/></svg>