<?xml version="1.0" encoding="UTF-8" standalone="no"?><!-- Generator: Gravit.io --><svg xmlns="http://www.w3.org/2000/svg" xmlns:xlink="http://www.w3.org/1999/xlink" style="isolation:isolate" viewBox="0 0 512 512" width="512pt" height="512pt"><g><linearGradient id="_lgradient_12" x1="0.9989863013698632" y1="0.4998034113588412" x2="0.0006575342465753309" y2="0.4998034113588411" gradientTransform="matrix(332.519,0,0,267.711,166.608,79.773)" gradientUnits="userSpaceOnUse"><stop offset="0%" stop-opacity="1" style="stop-color:rgb(177,221,202)"/><stop offset="100%" stop-opacity="1" style="stop-color:rgb(13,179,196)"/></linearGradient><path d=" M 261.353 200.937 C 254.976 200.026 249.51 199.115 243.133 199.115 C 241.311 199.115 238.578 199.115 236.756 199.115 C 233.112 199.115 232.201 199.115 230.379 200.937 C 226.687 208.935 239.198 216.933 249.396 220.722 C 254.299 222.544 267.729 226.411 270.796 226.952 C 283.806 229.246 304.476 227.878 309.637 230.09 C 302.349 233.734 267.73 241.022 256.798 242.844 C 253.154 243.755 208.514 249.221 200.315 250.132 C 194.849 250.132 185.739 250.132 183.006 252.865 C 179.867 256.633 181.488 260.833 184.886 263.079 C 186.419 264.092 191.703 265.75 193.737 266.086 C 204.189 267.807 235.062 266.53 240.4 266.53 C 256.798 266.53 271.374 261.975 287.772 262.886 C 285.039 265.619 273.196 268.352 272.285 269.263 Q 201.226 283.84 194.849 284.751 C 184.828 286.573 167.519 286.573 166.608 297.505 C 170.252 306.615 201.226 301.149 209.425 301.149 L 244.044 297.505 C 247.688 296.594 248.599 296.594 254.065 295.683 C 260.442 294.772 268.641 292.95 275.018 291.128 L 284.128 290.217 L 277.751 294.772 C 264.997 300.238 214.891 314.814 211.247 315.725 C 204.87 317.547 199.404 319.369 202.137 326.657 C 205.949 328.563 219.509 328.254 228.602 326.965 C 232.548 326.406 243.457 323.964 247.745 323.171 C 270.062 319.044 306.55 309.084 314.192 302.971 L 318.747 302.971 C 312.37 306.615 309.637 310.259 299.616 315.725 L 266.819 332.123 C 262.264 333.945 257.709 334.856 253.154 336.678 C 248.599 338.5 242.222 339.411 241.311 344.877 C 250.421 352.165 275.018 342.144 286.861 339.411 C 304.171 337.589 360.653 311.17 371.586 302.06 C 378.874 299.327 388.895 292.039 396.183 287.484 C 400.738 284.751 415.314 273.818 417.136 271.085 C 425.335 267.441 447.2 243.755 454.488 236.467 L 469.975 217.336 C 486.373 193.649 498.216 171.785 499.127 139.9 C 499.127 103.459 479.085 81.595 475.441 79.773 C 478.174 93.438 483.64 100.726 475.441 122.59 C 463.598 149.01 422.602 187.272 394.361 195.471 C 390.717 197.293 385.251 199.115 379.785 199.115 C 352.454 207.314 353.365 193.649 321.48 192.738 C 317.836 191.827 314.192 192.738 310.548 192.738 C 308.726 192.738 305.993 192.738 305.082 193.649 Q 293.239 196.382 289.594 197.293 C 287.772 197.293 285.95 198.204 284.128 198.204 C 280.484 199.115 267.73 200.937 261.353 200.937 Z " fill-rule="evenodd" fill="url(#_lgradient_12)"/><linearGradient id="_lgradient_13" x1="0.981745477475179" y1="0.5689007092198586" x2="0.018281604843159993" y2="0.48990197524804674" gradientTransform="matrix(443.174,0,0,256.905,68.826,203.67)" gradientUnits="userSpaceOnUse"><stop offset="0%" stop-opacity="1" style="stop-color:rgb(101,78,157)"/><stop offset="100%" stop-opacity="1" style="stop-color:rgb(61,59,116)"/></linearGradient><path d=" M 176.143 425.402 Q 178.514 427.106 184.828 431.423 C 196.155 441.941 229.035 456.769 247.74 459.319 C 250.097 459.64 256.798 460.576 258.62 460.576 C 259.531 460.576 273.196 460.576 277.751 460.576 C 307.815 458.754 325.124 444.178 335.145 441.445 C 348.81 430.512 355.187 428.69 371.586 412.292 C 381.607 402.271 396.183 388.606 404.382 378.585 C 408.937 373.119 415.314 365.831 419.869 361.276 C 425.335 354.898 428.979 348.521 434.445 342.144 C 439 336.678 445.378 328.479 448.111 323.013 C 455.399 312.992 458.132 308.437 452.666 301.149 C 441.733 300.238 437.178 310.259 431.712 316.636 C 424.424 323.924 381.607 363.098 369.764 358.543 L 367.942 346.699 C 357.92 343.055 349.721 351.254 338.789 358.543 C 321.48 371.297 311.459 383.14 290.505 394.072 C 278.662 400.449 271.374 402.271 254.065 401.36 C 239.489 399.538 222.18 387.695 211.247 379.496 C 204.87 374.941 199.404 370.386 193.027 364.92 C 186.65 359.454 179.362 353.076 173.896 349.432 L 142.922 319.369 C 132.9 308.437 122.879 296.594 113.769 285.662 C 93.727 261.064 85.528 245.577 76.418 216.425 C 75.507 212.781 74.596 205.492 73.685 203.67 C 70.041 204.581 71.863 205.492 70.041 215.514 C 67.307 231.001 70.041 241.933 70.041 255.598 C 70.952 269.263 77.329 287.484 81.884 300.238 C 85.528 312.081 94.638 327.568 100.104 337.589 C 107.392 350.343 114.68 360.365 122.879 371.297 L 149.299 402.271 C 153.628 405.158 167.105 418.906 176.143 425.402 Z  M 489.106 229.179 C 464.509 236.467 477.263 267.441 499.127 261.064 C 521.903 253.776 511.881 221.891 489.106 229.179 Z  M 462.687 273.818 C 449.022 280.195 459.043 298.416 471.797 291.128 C 482.729 285.662 476.352 268.352 462.687 273.818 Z  M 411.67 293.861 L 411.67 301.149 C 425.335 310.259 428.979 293.861 419.869 291.128 C 416.225 290.217 413.492 292.95 411.67 293.861 Z  M 381.607 312.992 C 362.475 320.28 374.319 343.966 390.717 338.5 C 409.848 332.123 399.827 306.615 381.607 312.992 Z  M 446.289 343.055 C 433.534 349.432 444.467 366.742 456.31 360.365 C 468.153 353.987 459.043 335.767 446.289 343.055 Z  M 473.619 312.992 C 458.132 321.191 471.797 343.055 487.284 334.856 C 501.86 326.657 490.017 304.793 473.619 312.992 Z " fill-rule="evenodd" fill="url(#_lgradient_13)"/><linearGradient id="_lgradient_14" x1="0.5499645560945425" y1="0.011132930262472085" x2="0.4597312892597765" y2="0.9894342426151432" gradientTransform="matrix(335.145,0,0,378.133,0,88.713)" gradientUnits="userSpaceOnUse"><stop offset="0%" stop-opacity="1" style="stop-color:rgb(138,56,125)"/><stop offset="100%" stop-opacity="1" style="stop-color:rgb(235,84,137)"/></linearGradient><path d=" M 27.223 277.462 C 31.778 292.95 68.219 336.678 78.24 348.521 C 87.35 358.543 99.193 370.386 109.214 379.496 L 132.9 401.36 C 145.84 411.995 173.896 434.157 180.273 438.712 C 191.205 446 211.247 456.932 225.824 461.487 C 250.421 468.775 263.175 467.864 287.772 463.309 C 301.438 460.576 325.124 448.733 335.145 441.445 C 325.124 444.178 307.815 458.754 277.751 460.576 C 273.196 460.576 260.442 460.576 258.62 460.576 C 256.798 460.576 250.111 459.641 247.763 459.322 C 229.063 456.782 196.159 441.945 184.828 431.423 Q 178.555 427.13 176.214 425.453 C 167.175 418.978 153.64 405.165 149.299 402.271 L 122.879 371.297 C 114.68 360.365 107.392 350.343 100.104 337.589 C 94.638 327.568 85.528 312.081 81.884 300.238 C 77.329 287.484 70.952 269.263 70.041 255.598 C 70.041 241.933 67.307 231.001 70.041 215.514 C 71.863 205.492 70.041 204.581 73.685 203.67 C 72.774 192.738 73.685 185.45 75.507 175.429 C 77.329 165.408 80.062 159.942 83.706 151.743 C 85.528 149.921 88.261 145.366 90.083 143.544 C 104.659 127.145 126.523 119.857 150.21 125.323 C 159.32 127.145 168.43 132.611 173.896 133.523 C 174.807 132.611 156.587 120.768 153.854 118.946 C 147.477 114.391 136.544 109.836 130.167 106.192 C 118.324 101.637 99.193 90.705 84.617 89.794 C 64.574 87.972 45.443 87.061 29.956 98.904 L 21.757 107.103 C 19.024 108.925 20.846 108.014 18.113 108.925 C 15.465 112.898 9.93 123.125 7.102 131.565 C 6.039 134.738 2.492 145.623 1.645 150.356 C -1.699 169.049 0.629 203.883 3.537 215.514 C 6.27 228.268 9.003 237.378 13.558 248.31 C 14.469 252.865 23.579 273.818 27.223 277.462 Z " fill-rule="evenodd" fill="url(#_lgradient_14)"/><linearGradient id="_lgradient_15" x1="-0.00033546890435021126" y1="0.4998461538461543" x2="1.0003682727714671" y2="0.4998461538461543" gradientTransform="matrix(461.658,0,0,153.961,18.113,45.154)" gradientUnits="userSpaceOnUse"><stop offset="0%" stop-opacity="1" style="stop-color:rgb(215,77,119)"/><stop offset="100%" stop-opacity="1" style="stop-color:rgb(241,186,129)"/></linearGradient><path d=" M 18.113 108.925 C 20.846 108.014 19.024 108.925 21.757 107.103 L 29.956 98.904 C 45.443 87.061 64.574 87.972 84.617 89.794 C 99.193 90.705 118.324 101.637 130.167 106.192 C 136.544 109.836 147.477 114.391 153.854 118.946 C 156.587 120.768 174.807 132.611 173.896 133.523 Q 175.718 135.345 212.158 160.853 C 218.536 166.319 237.667 175.429 244.955 177.251 C 251.127 178.897 257.113 179.799 262.997 179.707 C 270.141 179.594 277.534 178.415 284.528 174.918 Q 296.829 169.926 302.236 166.549 C 313.958 159.226 329.703 145.814 339.168 136.619 C 343.119 132.78 352.765 124.239 357.413 121.133 C 365.217 115.919 376.552 109.836 392.539 109.836 C 410.759 109.836 425.335 118.946 430.801 132.611 C 437.178 149.01 426.246 166.319 416.225 174.518 C 398.916 190.005 382.518 197.293 379.785 199.115 C 385.251 199.115 390.717 197.293 394.361 195.471 C 422.602 187.272 463.598 149.01 475.441 122.59 C 483.64 100.726 478.174 93.438 475.441 79.773 C 469.975 70.663 439.911 53.353 425.335 49.709 C 408.026 46.065 386.162 44.243 367.942 49.709 Q 348.175 55.341 345.919 56.036 C 336.626 58.899 322.056 67.73 316.925 70.663 C 310.548 74.307 307.815 76.129 301.438 80.684 C 297.794 84.328 280.484 95.26 275.929 97.082 C 249.27 106.709 227.426 80.218 208.441 68.009 C 204.07 65.199 188.612 58.008 182.209 55.799 C 166.895 50.516 143.553 45.797 131.989 45.154 C 119.235 45.154 107.392 46.065 95.549 48.798 C 90.083 50.62 73.685 56.086 69.13 58.82 L 51.82 69.752 C 40.888 77.04 21.757 97.082 18.113 108.925 Z " fill-rule="evenodd" fill="url(#_lgradient_15)"/></g></svg>