<?xml version="1.0" encoding="UTF-8" standalone="no"?><!-- Generator: Gravit.io --><svg xmlns="http://www.w3.org/2000/svg" xmlns:xlink="http://www.w3.org/1999/xlink" style="isolation:isolate" viewBox="0 0 576.4 128" width="576.4pt" height="128pt"><path d=" M 487.943 64.011 L 459.3 64.011 L 459.3 16.98 L 467.171 16.98 L 467.171 56.63 L 487.943 56.63 L 487.943 64.011 Z  M 502.02 64.011 L 494.149 64.011 L 494.149 16.98 L 502.02 16.98 L 502.02 64.011 Z  M 519.69 64.011 L 511.818 64.011 L 511.818 16.98 L 540.135 16.98 L 540.135 24.851 L 519.69 24.851 L 519.69 36.576 L 536.216 36.576 L 536.216 44.415 L 519.69 44.415 L 519.69 64.011 Z  M 576.388 64.011 L 546.014 64.011 L 546.014 16.98 L 576.388 16.98 L 576.388 24.361 L 553.885 24.361 L 553.885 35.956 L 572.469 35.956 L 572.469 43.337 L 553.885 43.337 L 553.885 56.63 L 576.388 56.63 L 576.388 64.011 Z  M 206.866 64.991 L 206.866 64.991 L 206.866 64.991 Q 201.705 64.991 197.574 63.195 L 197.574 63.195 L 197.574 63.195 Q 193.442 61.398 190.78 58.051 L 190.78 58.051 L 190.78 58.051 Q 188.119 54.703 187.4 50.098 L 187.4 50.098 L 195.565 48.857 L 195.565 48.857 Q 196.61 53.037 199.86 55.323 L 199.86 55.323 L 199.86 55.323 Q 203.11 57.61 207.356 57.61 L 207.356 57.61 L 207.356 57.61 Q 209.871 57.61 212.091 56.826 L 212.091 56.826 L 212.091 56.826 Q 214.312 56.042 215.7 54.54 L 215.7 54.54 L 215.7 54.54 Q 217.089 53.037 217.089 50.849 L 217.089 50.849 L 217.089 50.849 Q 217.089 49.869 216.762 49.036 L 216.762 49.036 L 216.762 49.036 Q 216.435 48.203 215.798 47.55 L 215.798 47.55 L 215.798 47.55 Q 215.162 46.897 214.165 46.358 L 214.165 46.358 L 214.165 46.358 Q 213.169 45.819 211.863 45.427 L 211.863 45.427 L 199.713 41.835 L 199.713 41.835 Q 198.145 41.377 196.333 40.61 L 196.333 40.61 L 196.333 40.61 Q 194.52 39.842 192.903 38.487 L 192.903 38.487 L 192.903 38.487 Q 191.287 37.131 190.258 35.025 L 190.258 35.025 L 190.258 35.025 Q 189.229 32.918 189.229 29.815 L 189.229 29.815 L 189.229 29.815 Q 189.229 25.276 191.532 22.189 L 191.532 22.189 L 191.532 22.189 Q 193.834 19.103 197.737 17.568 L 197.737 17.568 L 197.737 17.568 Q 201.64 16.033 206.409 16.065 L 206.409 16.065 L 206.409 16.065 Q 211.242 16.098 215.031 17.715 L 215.031 17.715 L 215.031 17.715 Q 218.82 19.331 221.367 22.401 L 221.367 22.401 L 221.367 22.401 Q 223.915 25.472 224.96 29.815 L 224.96 29.815 L 216.501 31.285 L 216.501 31.285 Q 215.978 28.803 214.492 27.056 L 214.492 27.056 L 214.492 27.056 Q 213.006 25.308 210.867 24.394 L 210.867 24.394 L 210.867 24.394 Q 208.727 23.479 206.311 23.414 L 206.311 23.414 L 206.311 23.414 Q 203.959 23.381 201.95 24.116 L 201.95 24.116 L 201.95 24.116 Q 199.942 24.851 198.717 26.223 L 198.717 26.223 L 198.717 26.223 Q 197.492 27.595 197.492 29.424 L 197.492 29.424 L 197.492 29.424 Q 197.492 31.155 198.537 32.249 L 198.537 32.249 L 198.537 32.249 Q 199.582 33.343 201.134 33.98 L 201.134 33.98 L 201.134 33.98 Q 202.685 34.617 204.286 35.041 L 204.286 35.041 L 212.712 37.393 L 212.712 37.393 Q 214.443 37.85 216.599 38.634 L 216.599 38.634 L 216.599 38.634 Q 218.754 39.418 220.747 40.822 L 220.747 40.822 L 220.747 40.822 Q 222.739 42.227 224.029 44.513 L 224.029 44.513 L 224.029 44.513 Q 225.319 46.799 225.319 50.326 L 225.319 50.326 L 225.319 50.326 Q 225.319 53.984 223.8 56.744 L 223.8 56.744 L 223.8 56.744 Q 222.282 59.504 219.701 61.333 L 219.701 61.333 L 219.701 61.333 Q 217.121 63.162 213.806 64.076 L 213.806 64.076 L 213.806 64.076 Q 210.491 64.991 206.866 64.991 Z  M 262.781 64.011 L 232.406 64.011 L 232.406 16.98 L 262.781 16.98 L 262.781 24.361 L 240.278 24.361 L 240.278 35.956 L 258.862 35.956 L 258.862 43.337 L 240.278 43.337 L 240.278 56.63 L 262.781 56.63 L 262.781 64.011 Z  M 288.877 64.991 L 288.877 64.991 L 288.877 64.991 Q 281.822 64.991 276.792 61.905 L 276.792 61.905 L 276.792 61.905 Q 271.762 58.818 269.068 53.298 L 269.068 53.298 L 269.068 53.298 Q 266.373 47.779 266.373 40.495 L 266.373 40.495 L 266.373 40.495 Q 266.373 33.212 269.068 27.693 L 269.068 27.693 L 269.068 27.693 Q 271.762 22.173 276.792 19.086 L 276.792 19.086 L 276.792 19.086 Q 281.822 16 288.877 16 L 288.877 16 L 288.877 16 Q 297.009 16 302.431 20.066 L 302.431 20.066 L 302.431 20.066 Q 307.853 24.133 310.041 31.024 L 310.041 31.024 L 302.104 33.212 L 302.104 33.212 Q 300.732 28.607 297.434 26.01 L 297.434 26.01 L 297.434 26.01 Q 294.135 23.414 288.877 23.414 L 288.877 23.414 L 288.877 23.414 Q 284.141 23.414 280.989 25.537 L 280.989 25.537 L 280.989 25.537 Q 277.837 27.66 276.253 31.497 L 276.253 31.497 L 276.253 31.497 Q 274.669 35.335 274.637 40.495 L 274.637 40.495 L 274.637 40.495 Q 274.637 45.656 276.221 49.494 L 276.221 49.494 L 276.221 49.494 Q 277.805 53.331 280.973 55.454 L 280.973 55.454 L 280.973 55.454 Q 284.141 57.577 288.877 57.577 L 288.877 57.577 L 288.877 57.577 Q 294.135 57.577 297.434 54.964 L 297.434 54.964 L 297.434 54.964 Q 300.732 52.351 302.104 47.779 L 302.104 47.779 L 310.041 49.967 L 310.041 49.967 Q 307.853 56.858 302.431 60.925 L 302.431 60.925 L 302.431 60.925 Q 297.009 64.991 288.877 64.991 Z  M 336.169 64.991 L 336.169 64.991 L 336.169 64.991 Q 330.552 64.991 326.289 62.705 L 326.289 62.705 L 326.289 62.705 Q 322.027 60.419 319.627 56.271 L 319.627 56.271 L 319.627 56.271 Q 317.226 52.123 317.226 46.538 L 317.226 46.538 L 317.226 17.045 L 325.195 16.98 L 325.195 46.342 L 325.195 46.342 Q 325.195 48.987 326.094 51.078 L 326.094 51.078 L 326.094 51.078 Q 326.992 53.168 328.527 54.621 L 328.527 54.621 L 328.527 54.621 Q 330.062 56.075 332.054 56.826 L 332.054 56.826 L 332.054 56.826 Q 334.046 57.577 336.169 57.577 L 336.169 57.577 L 336.169 57.577 Q 338.358 57.577 340.334 56.809 L 340.334 56.809 L 340.334 56.809 Q 342.31 56.042 343.845 54.589 L 343.845 54.589 L 343.845 54.589 Q 345.38 53.135 346.261 51.045 L 346.261 51.045 L 346.261 51.045 Q 347.143 48.955 347.143 46.342 L 347.143 46.342 L 347.143 16.98 L 355.112 16.98 L 355.112 46.538 L 355.112 46.538 Q 355.112 52.123 352.712 56.271 L 352.712 56.271 L 352.712 56.271 Q 350.311 60.419 346.049 62.705 L 346.049 62.705 L 346.049 62.705 Q 341.787 64.991 336.169 64.991 Z  M 372.129 64.011 L 364.257 64.011 L 364.257 16.98 L 383.691 16.98 L 383.691 16.98 Q 384.376 16.98 385.454 17.029 L 385.454 17.029 L 385.454 17.029 Q 386.532 17.078 387.447 17.241 L 387.447 17.241 L 387.447 17.241 Q 391.529 17.862 394.191 19.952 L 394.191 19.952 L 394.191 19.952 Q 396.853 22.042 398.143 25.227 L 398.143 25.227 L 398.143 25.227 Q 399.433 28.411 399.433 32.298 L 399.433 32.298 L 399.433 32.298 Q 399.433 38.046 396.526 42.178 L 396.526 42.178 L 396.526 42.178 Q 393.619 46.309 387.61 47.289 L 387.61 47.289 L 384.246 47.583 L 372.129 47.583 L 372.129 64.011 Z  M 400.184 64.011 L 391.268 64.011 L 381.992 44.872 L 389.994 43.108 L 400.184 64.011 Z  M 372.129 24.361 L 372.129 40.234 L 383.364 40.234 L 383.364 40.234 Q 384.017 40.234 384.834 40.169 L 384.834 40.169 L 384.834 40.169 Q 385.65 40.104 386.336 39.908 L 386.336 39.908 L 386.336 39.908 Q 388.296 39.418 389.423 38.177 L 389.423 38.177 L 389.423 38.177 Q 390.549 36.935 391.023 35.368 L 391.023 35.368 L 391.023 35.368 Q 391.496 33.8 391.496 32.298 L 391.496 32.298 L 391.496 32.298 Q 391.496 30.795 391.023 29.211 L 391.023 29.211 L 391.023 29.211 Q 390.549 27.627 389.423 26.386 L 389.423 26.386 L 389.423 26.386 Q 388.296 25.145 386.336 24.655 L 386.336 24.655 L 386.336 24.655 Q 385.65 24.459 384.834 24.41 L 384.834 24.41 L 384.834 24.41 Q 384.017 24.361 383.364 24.361 L 383.364 24.361 L 372.129 24.361 Z  M 437.744 64.011 L 407.37 64.011 L 407.37 16.98 L 437.744 16.98 L 437.744 24.361 L 415.241 24.361 L 415.241 35.956 L 433.825 35.956 L 433.825 43.337 L 415.241 43.337 L 415.241 56.63 L 437.744 56.63 L 437.744 64.011 Z " fill="rgb(27,30,35)"/><path d=" M 190.522 111.554 L 187.4 111.554 L 187.4 83.17 L 199.119 83.17 L 199.119 83.17 Q 203.214 83.17 205.688 85.481 L 205.688 85.481 L 205.688 85.481 Q 208.161 87.792 208.161 91.563 L 208.161 91.563 L 208.161 91.563 Q 208.161 95.334 205.688 97.646 L 205.688 97.646 L 205.688 97.646 Q 203.214 99.957 199.119 99.957 L 199.119 99.957 L 190.522 99.957 L 190.522 111.554 Z  M 198.754 85.927 L 198.754 85.927 L 190.522 85.927 L 190.522 97.281 L 198.754 97.281 L 198.754 97.281 Q 201.673 97.281 203.356 95.74 L 203.356 95.74 L 203.356 95.74 Q 205.039 94.199 205.039 91.563 L 205.039 91.563 L 205.039 91.563 Q 205.039 88.968 203.356 87.447 L 203.356 87.447 L 203.356 87.447 Q 201.673 85.927 198.754 85.927 Z  M 217.001 111.554 L 213.879 111.554 L 213.879 83.17 L 217.001 83.17 L 217.001 95.861 L 233.302 95.861 L 233.302 83.17 L 236.424 83.17 L 236.424 111.554 L 233.302 111.554 L 233.302 98.659 L 217.001 98.659 L 217.001 111.554 Z  M 243.601 111.554 L 240.317 111.554 L 251.549 83.17 L 255.279 83.17 L 266.349 111.554 L 262.984 111.554 L 259.618 102.633 L 246.967 102.633 L 243.601 111.554 Z  M 253.292 85.967 L 247.94 100.16 L 258.685 100.16 L 253.292 85.967 Z  M 273.445 111.554 L 270.323 111.554 L 270.323 83.17 L 281.961 83.17 L 281.961 83.17 Q 286.016 83.17 288.509 85.44 L 288.509 85.44 L 288.509 85.44 Q 291.003 87.711 291.003 91.36 L 291.003 91.36 L 291.003 91.36 Q 291.003 94.158 289.402 96.206 L 289.402 96.206 L 289.402 96.206 Q 287.8 98.254 285.083 99.024 L 285.083 99.024 L 291.125 111.554 L 287.678 111.554 L 281.92 99.43 L 273.445 99.43 L 273.445 111.554 Z  M 281.717 85.927 L 281.717 85.927 L 273.445 85.927 L 273.445 96.835 L 281.717 96.835 L 281.717 96.835 Q 284.515 96.835 286.198 95.334 L 286.198 95.334 L 286.198 95.334 Q 287.881 93.834 287.881 91.401 L 287.881 91.401 L 287.881 91.401 Q 287.881 88.928 286.198 87.427 L 286.198 87.427 L 286.198 87.427 Q 284.515 85.927 281.717 85.927 Z  M 321.253 86.859 L 310.386 109.526 L 299.478 86.778 L 299.478 111.554 L 296.558 111.554 L 296.558 83.17 L 300.897 83.17 L 310.386 103.363 L 319.874 83.17 L 324.213 83.17 L 324.213 111.554 L 321.253 111.554 L 321.253 86.859 Z  M 331.512 111.554 L 328.227 111.554 L 339.46 83.17 L 343.19 83.17 L 354.26 111.554 L 350.894 111.554 L 347.529 102.633 L 334.877 102.633 L 331.512 111.554 Z  M 341.203 85.967 L 335.851 100.16 L 346.596 100.16 L 341.203 85.967 Z  M 370.155 109.162 L 370.155 109.162 L 370.155 109.162 Q 372.588 109.162 374.859 108.148 L 374.859 108.148 L 374.859 108.148 Q 377.13 107.134 378.671 105.269 L 378.671 105.269 L 380.698 107.337 L 380.698 107.337 Q 378.63 109.567 375.873 110.784 L 375.873 110.784 L 375.873 110.784 Q 373.115 112 370.074 112 L 370.074 112 L 370.074 112 Q 367.033 112 364.377 110.844 L 364.377 110.844 L 364.377 110.844 Q 361.721 109.689 359.795 107.722 L 359.795 107.722 L 359.795 107.722 Q 357.869 105.755 356.754 103.079 L 356.754 103.079 L 356.754 103.079 Q 355.639 100.403 355.639 97.362 L 355.639 97.362 L 355.639 97.362 Q 355.639 94.321 356.754 91.624 L 356.754 91.624 L 356.754 91.624 Q 357.869 88.928 359.815 86.961 L 359.815 86.961 L 359.815 86.961 Q 361.762 84.994 364.397 83.859 L 364.397 83.859 L 364.397 83.859 Q 367.033 82.723 370.074 82.723 L 370.074 82.723 L 370.074 82.723 Q 373.196 82.723 375.994 83.94 L 375.994 83.94 L 375.994 83.94 Q 378.792 85.156 380.779 87.387 L 380.779 87.387 L 378.711 89.536 L 378.711 89.536 Q 377.13 87.67 374.818 86.616 L 374.818 86.616 L 374.818 86.616 Q 372.507 85.562 370.074 85.562 L 370.074 85.562 L 370.074 85.562 Q 367.682 85.562 365.614 86.474 L 365.614 86.474 L 365.614 86.474 Q 363.546 87.387 362.045 88.968 L 362.045 88.968 L 362.045 88.968 Q 360.545 90.549 359.673 92.719 L 359.673 92.719 L 359.673 92.719 Q 358.801 94.888 358.801 97.362 L 358.801 97.362 L 358.801 97.362 Q 358.801 99.835 359.673 102.005 L 359.673 102.005 L 359.673 102.005 Q 360.545 104.174 362.045 105.755 L 362.045 105.755 L 362.045 105.755 Q 363.546 107.337 365.634 108.249 L 365.634 108.249 L 365.634 108.249 Q 367.722 109.162 370.155 109.162 Z  M 405.96 111.554 L 386.415 111.554 L 386.415 83.17 L 405.798 83.17 L 405.798 85.886 L 389.538 85.886 L 389.538 95.861 L 400.81 95.861 L 400.81 98.578 L 389.538 98.578 L 389.538 108.837 L 405.96 108.837 L 405.96 111.554 Z  M 433.736 83.17 L 433.736 99.551 L 433.736 99.551 Q 433.736 105.228 430.634 108.614 L 430.634 108.614 L 430.634 108.614 Q 427.532 112 422.342 112 L 422.342 112 L 422.342 112 Q 417.111 112 414.029 108.634 L 414.029 108.634 L 414.029 108.634 Q 410.948 105.269 410.948 99.551 L 410.948 99.551 L 410.948 83.17 L 414.07 83.17 L 414.07 99.551 L 414.07 99.551 Q 414.07 103.89 416.321 106.526 L 416.321 106.526 L 416.321 106.526 Q 418.571 109.162 422.342 109.162 L 422.342 109.162 L 422.342 109.162 Q 426.113 109.162 428.364 106.526 L 428.364 106.526 L 428.364 106.526 Q 430.614 103.89 430.614 99.551 L 430.614 99.551 L 430.614 83.17 L 433.736 83.17 Z  M 447.726 85.927 L 437.913 85.927 L 437.913 83.17 L 460.621 83.17 L 460.621 85.927 L 450.848 85.927 L 450.848 111.554 L 447.726 111.554 L 447.726 85.927 Z  M 468.447 111.554 L 465.324 111.554 L 465.324 83.17 L 468.447 83.17 L 468.447 111.554 Z  M 488.802 109.162 L 488.802 109.162 L 488.802 109.162 Q 491.235 109.162 493.506 108.148 L 493.506 108.148 L 493.506 108.148 Q 495.777 107.134 497.318 105.269 L 497.318 105.269 L 499.345 107.337 L 499.345 107.337 Q 497.277 109.567 494.52 110.784 L 494.52 110.784 L 494.52 110.784 Q 491.762 112 488.721 112 L 488.721 112 L 488.721 112 Q 485.68 112 483.024 110.844 L 483.024 110.844 L 483.024 110.844 Q 480.368 109.689 478.442 107.722 L 478.442 107.722 L 478.442 107.722 Q 476.516 105.755 475.401 103.079 L 475.401 103.079 L 475.401 103.079 Q 474.286 100.403 474.286 97.362 L 474.286 97.362 L 474.286 97.362 Q 474.286 94.321 475.401 91.624 L 475.401 91.624 L 475.401 91.624 Q 476.516 88.928 478.462 86.961 L 478.462 86.961 L 478.462 86.961 Q 480.409 84.994 483.044 83.859 L 483.044 83.859 L 483.044 83.859 Q 485.68 82.723 488.721 82.723 L 488.721 82.723 L 488.721 82.723 Q 491.843 82.723 494.641 83.94 L 494.641 83.94 L 494.641 83.94 Q 497.439 85.156 499.426 87.387 L 499.426 87.387 L 497.358 89.536 L 497.358 89.536 Q 495.777 87.67 493.465 86.616 L 493.465 86.616 L 493.465 86.616 Q 491.154 85.562 488.721 85.562 L 488.721 85.562 L 488.721 85.562 Q 486.329 85.562 484.261 86.474 L 484.261 86.474 L 484.261 86.474 Q 482.193 87.387 480.692 88.968 L 480.692 88.968 L 480.692 88.968 Q 479.192 90.549 478.32 92.719 L 478.32 92.719 L 478.32 92.719 Q 477.448 94.888 477.448 97.362 L 477.448 97.362 L 477.448 97.362 Q 477.448 99.835 478.32 102.005 L 478.32 102.005 L 478.32 102.005 Q 479.192 104.174 480.692 105.755 L 480.692 105.755 L 480.692 105.755 Q 482.193 107.337 484.281 108.249 L 484.281 108.249 L 484.281 108.249 Q 486.369 109.162 488.802 109.162 Z  M 505.103 111.554 L 501.819 111.554 L 513.051 83.17 L 516.781 83.17 L 527.851 111.554 L 524.486 111.554 L 521.12 102.633 L 508.469 102.633 L 505.103 111.554 Z  M 514.794 85.967 L 509.442 100.16 L 520.187 100.16 L 514.794 85.967 Z  M 550.964 111.554 L 531.825 111.554 L 531.825 83.17 L 534.947 83.17 L 534.947 108.797 L 550.964 108.797 L 550.964 111.554 Z  M 553.965 107.134 L 553.965 107.134 L 555.871 104.863 L 555.871 104.863 Q 558.425 107.256 560.676 108.269 L 560.676 108.269 L 560.676 108.269 Q 562.926 109.283 565.683 109.283 L 565.683 109.283 L 565.683 109.283 Q 568.968 109.283 571.117 107.641 L 571.117 107.641 L 571.117 107.641 Q 573.266 105.999 573.266 103.566 L 573.266 103.566 L 573.266 103.566 Q 573.266 101.457 571.827 100.322 L 571.827 100.322 L 571.827 100.322 Q 570.387 99.186 566.941 98.578 L 566.941 98.578 L 562.358 97.808 L 562.358 97.808 Q 558.466 97.118 556.661 95.436 L 556.661 95.436 L 556.661 95.436 Q 554.857 93.753 554.857 90.914 L 554.857 90.914 L 554.857 90.914 Q 554.857 87.346 557.574 85.075 L 557.574 85.075 L 557.574 85.075 Q 560.29 82.805 564.589 82.805 L 564.589 82.805 L 564.589 82.805 Q 567.752 82.805 570.468 83.676 L 570.468 83.676 L 570.468 83.676 Q 573.185 84.548 575.821 86.413 L 575.821 86.413 L 574.199 88.846 L 574.199 88.846 Q 572.009 87.224 569.556 86.332 L 569.556 86.332 L 569.556 86.332 Q 567.103 85.44 564.629 85.44 L 564.629 85.44 L 564.629 85.44 Q 561.669 85.44 559.763 86.92 L 559.763 86.92 L 559.763 86.92 Q 557.857 88.4 557.857 90.59 L 557.857 90.59 L 557.857 90.59 Q 557.857 92.455 559.115 93.51 L 559.115 93.51 L 559.115 93.51 Q 560.372 94.564 563.21 95.01 L 563.21 95.01 L 567.752 95.78 L 567.752 95.78 Q 572.252 96.591 574.32 98.416 L 574.32 98.416 L 574.32 98.416 Q 576.388 100.241 576.388 103.404 L 576.388 103.404 L 576.388 103.404 Q 576.388 105.228 575.577 106.81 L 575.577 106.81 L 575.577 106.81 Q 574.767 108.391 573.327 109.526 L 573.327 109.526 L 573.327 109.526 Q 571.888 110.662 569.901 111.311 L 569.901 111.311 L 569.901 111.311 Q 567.914 111.959 565.602 111.959 L 565.602 111.959 L 565.602 111.959 Q 562.277 111.959 559.419 110.763 L 559.419 110.763 L 559.419 110.763 Q 556.56 109.567 553.965 107.134 Z " fill="rgb(27,30,35)"/><g><linearGradient id="_lgradient_16" x1="0.9989863013698632" y1="0.4998034113588412" x2="0.0006575342465753309" y2="0.4998034113588411" gradientTransform="matrix(100.933,0,0,81.261,50.572,10.508)" gradientUnits="userSpaceOnUse"><stop offset="0%" stop-opacity="1" style="stop-color:rgb(177,221,202)"/><stop offset="100%" stop-opacity="1" style="stop-color:rgb(13,179,196)"/></linearGradient><path d=" M 79.331 47.286 C 77.395 47.01 75.736 46.733 73.8 46.733 C 73.247 46.733 72.418 46.733 71.865 46.733 C 70.759 46.733 70.482 46.733 69.929 47.286 C 68.809 49.714 72.606 52.141 75.701 53.292 C 77.19 53.845 81.266 55.019 82.197 55.183 C 86.146 55.879 92.421 55.464 93.987 56.135 C 91.775 57.241 81.267 59.454 77.948 60.007 C 76.842 60.283 63.292 61.942 60.804 62.219 C 59.144 62.219 56.379 62.219 55.55 63.048 C 54.597 64.192 55.089 65.467 56.12 66.149 C 56.585 66.456 58.189 66.96 58.807 67.061 C 61.979 67.584 71.35 67.196 72.971 67.196 C 77.948 67.196 82.373 65.814 87.35 66.09 C 86.521 66.92 82.926 67.749 82.649 68.026 Q 61.08 72.45 59.144 72.727 C 56.103 73.28 50.849 73.28 50.572 76.598 C 51.678 79.364 61.08 77.704 63.569 77.704 L 74.077 76.598 C 75.183 76.322 75.46 76.322 77.119 76.045 C 79.054 75.769 81.543 75.216 83.479 74.663 L 86.244 74.386 L 84.309 75.769 C 80.437 77.428 65.228 81.852 64.122 82.129 C 62.186 82.682 60.527 83.235 61.357 85.447 C 62.514 86.026 66.63 85.932 69.39 85.541 C 70.588 85.371 73.899 84.63 75.2 84.389 C 81.974 83.136 93.05 80.113 95.37 78.257 L 96.752 78.257 C 94.817 79.364 93.987 80.47 90.945 82.129 L 80.99 87.106 C 79.608 87.659 78.225 87.936 76.842 88.489 C 75.46 89.042 73.524 89.319 73.247 90.978 C 76.013 93.19 83.479 90.148 87.074 89.319 C 92.328 88.766 109.473 80.746 112.791 77.981 C 115.003 77.151 118.045 74.939 120.257 73.557 C 121.64 72.727 126.064 69.409 126.617 68.579 C 129.106 67.473 135.743 60.283 137.955 58.071 L 142.656 52.264 C 147.633 45.074 151.228 38.437 151.505 28.759 C 151.505 17.698 145.421 11.061 144.315 10.508 C 145.145 14.656 146.804 16.868 144.315 23.505 C 140.72 31.524 128.276 43.138 119.704 45.627 C 118.598 46.18 116.939 46.733 115.28 46.733 C 106.984 49.222 107.26 45.074 97.582 44.798 C 96.476 44.521 95.37 44.798 94.264 44.798 C 93.71 44.798 92.881 44.798 92.604 45.074 Q 89.009 45.904 87.903 46.18 C 87.35 46.18 86.797 46.457 86.244 46.457 C 85.138 46.733 81.267 47.286 79.331 47.286 Z " fill-rule="evenodd" fill="url(#_lgradient_16)"/><linearGradient id="_lgradient_17" x1="0.981745477475179" y1="0.5689007092198586" x2="0.018281604843159993" y2="0.48990197524804674" gradientTransform="matrix(134.521,0,0,77.981,20.891,48.116)" gradientUnits="userSpaceOnUse"><stop offset="0%" stop-opacity="1" style="stop-color:rgb(101,78,157)"/><stop offset="100%" stop-opacity="1" style="stop-color:rgb(61,59,116)"/></linearGradient><path d=" M 53.466 115.42 Q 54.186 115.938 56.103 117.248 C 59.541 120.44 69.521 124.941 75.199 125.715 C 75.914 125.813 77.948 126.097 78.501 126.097 C 78.778 126.097 82.926 126.097 84.309 126.097 C 93.434 125.544 98.688 121.119 101.73 120.29 C 105.878 116.971 107.813 116.418 112.791 111.441 C 115.833 108.399 120.257 104.251 122.746 101.209 C 124.129 99.55 126.064 97.338 127.447 95.955 C 129.106 94.02 130.212 92.084 131.871 90.148 C 133.254 88.489 135.19 86 136.019 84.341 C 138.232 81.299 139.061 79.917 137.402 77.704 C 134.084 77.428 132.701 80.47 131.042 82.405 C 128.83 84.618 115.833 96.508 112.238 95.126 L 111.685 91.531 C 108.643 90.425 106.154 92.913 102.836 95.126 C 97.582 98.997 94.54 102.592 88.18 105.91 C 84.585 107.846 82.373 108.399 77.119 108.123 C 72.694 107.569 67.44 103.975 64.122 101.486 C 62.186 100.103 60.527 98.721 58.591 97.061 C 56.656 95.402 54.443 93.467 52.784 92.36 L 43.382 83.235 C 40.341 79.917 37.299 76.322 34.533 73.003 C 28.45 65.537 25.961 60.836 23.196 51.987 C 22.919 50.881 22.643 48.669 22.366 48.116 C 21.26 48.392 21.813 48.669 21.26 51.711 C 20.43 56.412 21.26 59.73 21.26 63.878 C 21.537 68.026 23.472 73.557 24.855 77.428 C 25.961 81.023 28.726 85.724 30.386 88.766 C 32.598 92.637 34.81 95.679 37.299 98.997 L 45.318 108.399 C 46.632 109.275 50.723 113.448 53.466 115.42 Z  M 148.463 55.859 C 140.997 58.071 144.868 67.473 151.505 65.537 C 158.418 63.325 155.376 53.646 148.463 55.859 Z  M 140.444 69.409 C 136.296 71.344 139.338 76.875 143.209 74.663 C 146.527 73.003 144.592 67.749 140.444 69.409 Z  M 124.958 75.492 L 124.958 77.704 C 129.106 80.47 130.212 75.492 127.447 74.663 C 126.341 74.386 125.511 75.216 124.958 75.492 Z  M 115.833 81.299 C 110.026 83.512 113.62 90.701 118.598 89.042 C 124.405 87.106 121.363 79.364 115.833 81.299 Z  M 135.466 90.425 C 131.595 92.36 134.913 97.614 138.508 95.679 C 142.103 93.743 139.338 88.212 135.466 90.425 Z  M 143.762 81.299 C 139.061 83.788 143.209 90.425 147.91 87.936 C 152.334 85.447 148.74 78.811 143.762 81.299 Z " fill-rule="evenodd" fill="url(#_lgradient_17)"/><linearGradient id="_lgradient_18" x1="0.5499645560945425" y1="0.011132930262472085" x2="0.4597312892597765" y2="0.9894342426151432" gradientTransform="matrix(101.73,0,0,114.778,0,13.222)" gradientUnits="userSpaceOnUse"><stop offset="0%" stop-opacity="1" style="stop-color:rgb(138,56,125)"/><stop offset="100%" stop-opacity="1" style="stop-color:rgb(235,84,137)"/></linearGradient><path d=" M 8.263 70.515 C 9.646 75.216 20.707 88.489 23.749 92.084 C 26.514 95.126 30.109 98.721 33.151 101.486 L 40.341 108.123 C 44.268 111.351 52.784 118.078 54.72 119.46 C 58.038 121.672 64.122 124.991 68.546 126.373 C 76.013 128.586 79.884 128.309 87.35 126.926 C 91.498 126.097 98.688 122.502 101.73 120.29 C 98.688 121.119 93.434 125.544 84.309 126.097 C 82.926 126.097 79.054 126.097 78.501 126.097 C 77.948 126.097 75.919 125.813 75.206 125.716 C 69.53 124.945 59.542 120.442 56.103 117.248 Q 54.199 115.945 53.488 115.436 C 50.744 113.47 46.636 109.278 45.318 108.399 L 37.299 98.997 C 34.81 95.679 32.598 92.637 30.386 88.766 C 28.726 85.724 25.961 81.023 24.855 77.428 C 23.472 73.557 21.537 68.026 21.26 63.878 C 21.26 59.73 20.43 56.412 21.26 51.711 C 21.813 48.669 21.26 48.392 22.366 48.116 C 22.09 44.798 22.366 42.585 22.919 39.544 C 23.472 36.502 24.302 34.843 25.408 32.354 C 25.961 31.801 26.791 30.418 27.344 29.865 C 31.768 24.888 38.405 22.675 45.595 24.334 C 48.36 24.888 51.125 26.547 52.784 26.823 C 53.061 26.547 47.53 22.952 46.701 22.399 C 44.765 21.016 41.447 19.634 39.511 18.527 C 35.916 17.145 30.109 13.826 25.685 13.55 C 19.601 12.997 13.794 12.72 9.093 16.315 L 6.604 18.804 C 5.774 19.357 6.328 19.08 5.498 19.357 C 4.694 20.563 3.014 23.667 2.156 26.229 C 1.833 27.192 0.756 30.496 0.499 31.933 C -0.516 37.607 0.191 48.18 1.074 51.711 C 1.903 55.582 2.733 58.347 4.115 61.666 C 4.392 63.048 7.157 69.409 8.263 70.515 Z " fill-rule="evenodd" fill="url(#_lgradient_18)"/><linearGradient id="_lgradient_19" x1="-0.00033546890435021126" y1="0.4998461538461543" x2="1.0003682727714671" y2="0.4998461538461543" gradientTransform="matrix(140.132,0,0,46.733,5.498,0)" gradientUnits="userSpaceOnUse"><stop offset="0%" stop-opacity="1" style="stop-color:rgb(215,77,119)"/><stop offset="100%" stop-opacity="1" style="stop-color:rgb(241,186,129)"/></linearGradient><path d=" M 5.498 19.357 C 6.328 19.08 5.774 19.357 6.604 18.804 L 9.093 16.315 C 13.794 12.72 19.601 12.997 25.685 13.55 C 30.109 13.826 35.916 17.145 39.511 18.527 C 41.447 19.634 44.765 21.016 46.701 22.399 C 47.53 22.952 53.061 26.547 52.784 26.823 Q 53.337 27.376 64.398 35.119 C 66.334 36.778 72.141 39.544 74.353 40.097 C 76.227 40.596 78.044 40.87 79.83 40.842 C 81.998 40.808 84.243 40.45 86.366 39.388 Q 90.099 37.873 91.74 36.848 C 95.299 34.625 100.078 30.554 102.951 27.763 C 104.15 26.598 107.078 24.005 108.489 23.063 C 110.858 21.48 114.299 19.634 119.151 19.634 C 124.682 19.634 129.106 22.399 130.765 26.547 C 132.701 31.524 129.383 36.778 126.341 39.267 C 121.087 43.968 116.109 46.18 115.28 46.733 C 116.939 46.733 118.598 46.18 119.704 45.627 C 128.276 43.138 140.72 31.524 144.315 23.505 C 146.804 16.868 145.145 14.656 144.315 10.508 C 142.656 7.743 133.531 2.489 129.106 1.383 C 123.852 0.277 117.215 -0.277 111.685 1.383 Q 105.685 3.092 105 3.303 C 102.179 4.172 97.757 6.853 96.199 7.743 C 94.264 8.849 93.434 9.402 91.498 10.785 C 90.392 11.891 85.138 15.209 83.755 15.762 C 75.663 18.684 69.033 10.643 63.27 6.937 C 61.943 6.084 57.251 3.901 55.308 3.231 C 50.659 1.628 43.574 0.195 40.064 0 C 36.193 0 32.598 0.277 29.003 1.106 C 27.344 1.659 22.366 3.318 20.984 4.148 L 15.73 7.466 C 12.411 9.678 6.604 15.762 5.498 19.357 Z " fill-rule="evenodd" fill="url(#_lgradient_19)"/></g></svg>